<mxfile host="app.diagrams.net" modified="2020-10-11T11:49:24.252Z" agent="5.0 (Macintosh; Intel Mac OS X 10_13_6) AppleWebKit/537.36 (KHTML, like Gecko) Chrome/81.0.4044.138 Safari/537.36" etag="NHCrfo6kX384BKjJeWUi" version="13.7.9" type="github">
  <diagram id="p4Nd8DHy-fVAcEdsIGSF" name="Page-1">
    <mxGraphModel dx="946" dy="1716" grid="1" gridSize="10" guides="1" tooltips="1" connect="1" arrows="1" fold="1" page="1" pageScale="1" pageWidth="827" pageHeight="1169" math="0" shadow="0">
      <root>
        <mxCell id="0" />
        <mxCell id="1" parent="0" />
        <mxCell id="spQuB_l44N9q1eX4pLCj-1" value="DAO" style="shape=folder;fontStyle=1;spacingTop=10;tabWidth=40;tabHeight=14;tabPosition=left;html=1;" parent="1" vertex="1">
          <mxGeometry x="330" y="210" width="100" height="70" as="geometry" />
        </mxCell>
        <mxCell id="spQuB_l44N9q1eX4pLCj-2" value="Outils" style="shape=folder;fontStyle=1;spacingTop=10;tabWidth=40;tabHeight=14;tabPosition=left;html=1;" parent="1" vertex="1">
          <mxGeometry x="510" y="210" width="100" height="70" as="geometry" />
        </mxCell>
        <mxCell id="spQuB_l44N9q1eX4pLCj-6" value="Metier" style="shape=folder;fontStyle=1;spacingTop=10;tabWidth=40;tabHeight=14;tabPosition=left;html=1;" parent="1" vertex="1">
          <mxGeometry x="140" y="80" width="100" height="70" as="geometry" />
        </mxCell>
        <mxCell id="spQuB_l44N9q1eX4pLCj-8" value="" style="endArrow=block;dashed=1;endFill=0;endSize=12;html=1;entryX=0;entryY=0.7;entryDx=0;entryDy=0;entryPerimeter=0;" parent="1" target="OpfBQdvl_bSCVIGFcSFf-1" edge="1">
          <mxGeometry width="160" relative="1" as="geometry">
            <mxPoint x="241" y="130" as="sourcePoint" />
            <mxPoint x="428" y="164.98000000000002" as="targetPoint" />
          </mxGeometry>
        </mxCell>
        <mxCell id="spQuB_l44N9q1eX4pLCj-10" value="" style="endArrow=block;dashed=1;endFill=0;endSize=12;html=1;entryX=0;entryY=0;entryDx=100;entryDy=42;entryPerimeter=0;exitX=0;exitY=0;exitDx=0;exitDy=42;exitPerimeter=0;" parent="1" source="spQuB_l44N9q1eX4pLCj-2" target="spQuB_l44N9q1eX4pLCj-1" edge="1">
          <mxGeometry width="160" relative="1" as="geometry">
            <mxPoint x="560" y="340" as="sourcePoint" />
            <mxPoint x="460" y="384" as="targetPoint" />
          </mxGeometry>
        </mxCell>
        <mxCell id="spQuB_l44N9q1eX4pLCj-11" value="" style="endArrow=block;dashed=1;endFill=0;endSize=12;html=1;exitX=0.49;exitY=0.186;exitDx=0;exitDy=0;exitPerimeter=0;entryX=0.5;entryY=1;entryDx=0;entryDy=0;entryPerimeter=0;" parent="1" source="spQuB_l44N9q1eX4pLCj-1" target="OpfBQdvl_bSCVIGFcSFf-1" edge="1">
          <mxGeometry width="160" relative="1" as="geometry">
            <mxPoint x="380" y="260" as="sourcePoint" />
            <mxPoint x="340" y="210" as="targetPoint" />
          </mxGeometry>
        </mxCell>
        <mxCell id="OpfBQdvl_bSCVIGFcSFf-1" value="Service" style="shape=folder;fontStyle=1;spacingTop=10;tabWidth=40;tabHeight=14;tabPosition=left;html=1;" parent="1" vertex="1">
          <mxGeometry x="330" y="80" width="100" height="70" as="geometry" />
        </mxCell>
        <mxCell id="OpfBQdvl_bSCVIGFcSFf-2" value="View" style="shape=folder;fontStyle=1;spacingTop=10;tabWidth=40;tabHeight=14;tabPosition=left;html=1;" parent="1" vertex="1">
          <mxGeometry x="330" y="-30" width="100" height="70" as="geometry" />
        </mxCell>
        <mxCell id="OpfBQdvl_bSCVIGFcSFf-3" value="" style="endArrow=block;dashed=1;endFill=0;endSize=12;html=1;exitX=0.13;exitY=1.043;exitDx=0;exitDy=0;exitPerimeter=0;" parent="1" source="OpfBQdvl_bSCVIGFcSFf-1" edge="1">
          <mxGeometry width="160" relative="1" as="geometry">
            <mxPoint x="260" y="264" as="sourcePoint" />
            <mxPoint x="343" y="210" as="targetPoint" />
            <Array as="points" />
          </mxGeometry>
        </mxCell>
        <mxCell id="OpfBQdvl_bSCVIGFcSFf-5" value="" style="endArrow=block;dashed=1;endFill=0;endSize=12;html=1;exitX=0;exitY=0;exitDx=0;exitDy=42;exitPerimeter=0;entryX=0;entryY=0;entryDx=100;entryDy=42;entryPerimeter=0;" parent="1" source="spQuB_l44N9q1eX4pLCj-4" target="OpfBQdvl_bSCVIGFcSFf-1" edge="1">
          <mxGeometry width="160" relative="1" as="geometry">
            <mxPoint x="680" y="142" as="sourcePoint" />
            <mxPoint x="600" y="60" as="targetPoint" />
            <Array as="points">
              <mxPoint x="470" y="122" />
            </Array>
          </mxGeometry>
        </mxCell>
        <mxCell id="spQuB_l44N9q1eX4pLCj-4" value="API" style="shape=folder;fontStyle=1;spacingTop=10;tabWidth=40;tabHeight=14;tabPosition=left;html=1;" parent="1" vertex="1">
          <mxGeometry x="510" y="80" width="110" height="70" as="geometry" />
        </mxCell>
        <mxCell id="OpfBQdvl_bSCVIGFcSFf-6" value="" style="endArrow=block;dashed=1;endFill=0;endSize=12;html=1;exitX=0;exitY=0;exitDx=100;exitDy=28;exitPerimeter=0;entryX=0;entryY=0;entryDx=0;entryDy=28;entryPerimeter=0;" parent="1" source="OpfBQdvl_bSCVIGFcSFf-1" target="spQuB_l44N9q1eX4pLCj-4" edge="1">
          <mxGeometry width="160" relative="1" as="geometry">
            <mxPoint x="680" y="142" as="sourcePoint" />
            <mxPoint x="430" y="122" as="targetPoint" />
            <Array as="points" />
          </mxGeometry>
        </mxCell>
        <mxCell id="OpfBQdvl_bSCVIGFcSFf-7" value="" style="endArrow=block;dashed=1;endFill=0;endSize=12;html=1;exitX=0.4;exitY=0.114;exitDx=0;exitDy=0;exitPerimeter=0;entryX=0;entryY=0;entryDx=100;entryDy=28;entryPerimeter=0;" parent="1" source="OpfBQdvl_bSCVIGFcSFf-1" edge="1">
          <mxGeometry width="160" relative="1" as="geometry">
            <mxPoint x="459" y="40" as="sourcePoint" />
            <mxPoint x="369" y="40" as="targetPoint" />
          </mxGeometry>
        </mxCell>
        <mxCell id="OpfBQdvl_bSCVIGFcSFf-8" value="" style="endArrow=block;dashed=1;endFill=0;endSize=12;html=1;entryX=0;entryY=0;entryDx=70;entryDy=14;entryPerimeter=0;exitX=0.69;exitY=1.014;exitDx=0;exitDy=0;exitPerimeter=0;" parent="1" source="OpfBQdvl_bSCVIGFcSFf-2" target="OpfBQdvl_bSCVIGFcSFf-1" edge="1">
          <mxGeometry width="160" relative="1" as="geometry">
            <mxPoint x="251" y="140" as="sourcePoint" />
            <mxPoint x="340" y="139" as="targetPoint" />
          </mxGeometry>
        </mxCell>
        <mxCell id="pddcXunC-wSCfwct5bj2-2" value="" style="endArrow=block;dashed=1;endFill=0;endSize=12;html=1;exitX=0.54;exitY=0.143;exitDx=0;exitDy=0;exitPerimeter=0;entryX=0.5;entryY=1;entryDx=0;entryDy=0;entryPerimeter=0;" edge="1" parent="1" source="spQuB_l44N9q1eX4pLCj-2" target="spQuB_l44N9q1eX4pLCj-4">
          <mxGeometry width="160" relative="1" as="geometry">
            <mxPoint x="389" y="233.01999999999998" as="sourcePoint" />
            <mxPoint x="390" y="160" as="targetPoint" />
          </mxGeometry>
        </mxCell>
      </root>
    </mxGraphModel>
  </diagram>
</mxfile>
